<svg width="42" height="42" viewBox="0 0 42 42" fill="none" xmlns="http://www.w3.org/2000/svg">
<g clip-path="url(#clip0_33_1993)">
<path d="M15.75 5.25L12.5475 8.75H7C5.075 8.75 3.5 10.325 3.5 12.25V33.25C3.5 35.175 5.075 36.75 7 36.75H35C36.925 36.75 38.5 35.175 38.5 33.25V12.25C38.5 10.325 36.925 8.75 35 8.75H29.4525L26.25 5.25H15.75ZM21 31.5C16.17 31.5 12.25 27.58 12.25 22.75C12.25 17.92 16.17 14 21 14C25.83 14 29.75 17.92 29.75 22.75C29.75 27.58 25.83 31.5 21 31.5Z" fill="black"/>
<path d="M21 29.75L23.1875 24.9375L28 22.75L23.1875 20.5625L21 15.75L18.8125 20.5625L14 22.75L18.8125 24.9375L21 29.75Z" fill="black"/>
</g>
<defs>
<clipPath id="clip0_33_1993">
<rect width="42" height="42" fill="white"/>
</clipPath>
</defs>
</svg>
