<svg width="36" height="28" viewBox="0 0 36 28" fill="none" xmlns="http://www.w3.org/2000/svg">
<path d="M32 0H4C2.075 0 0.5 1.575 0.5 3.5V24.5C0.5 26.425 2.075 28 4 28H32C33.925 28 35.5 26.425 35.5 24.5V3.5C35.5 1.575 33.925 0 32 0ZM10.58 21.42L8.1125 23.8875C5.365 21.175 4 17.5875 4 14C4 10.4125 5.365 6.825 8.095 4.095L10.5625 6.5625C8.5325 8.6275 7.5 11.305 7.5 14C7.5 16.695 8.5325 19.3725 10.58 21.42ZM18 21C14.1325 21 11 17.8675 11 14C11 10.1325 14.1325 7 18 7C21.8675 7 25 10.1325 25 14C25 17.8675 21.8675 21 18 21ZM27.905 23.905L25.4375 21.4375C27.4675 19.3725 28.5 16.695 28.5 14C28.5 11.305 27.4675 8.6275 25.42 6.58L27.8875 4.1125C30.635 6.825 32 10.4125 32 14C32 17.5875 30.635 21.175 27.905 23.905ZM18 10.5C16.075 10.5 14.5 12.075 14.5 14C14.5 15.925 16.075 17.5 18 17.5C19.925 17.5 21.5 15.925 21.5 14C21.5 12.075 19.925 10.5 18 10.5Z" fill="black"/>
</svg>
