<svg width="121" height="19" viewBox="0 0 121 19" fill="none" xmlns="http://www.w3.org/2000/svg">
<path d="M6.97664 6.2475L9.79548 1.25035C10.0837 0.739466 10.9163 0.739466 11.2045 1.25035L14.0234 6.2475L20.3265 7.04883C20.9709 7.13075 21.2282 7.8236 20.7619 8.22127L16.2009 12.111L17.2776 17.6034C17.3877 18.1649 16.7141 18.5931 16.1377 18.328L10.5 15.7349L4.86232 18.328C4.28595 18.5931 3.61231 18.1649 3.72239 17.6034L4.79909 12.111L0.238114 8.22127C-0.228179 7.8236 0.029127 7.13075 0.673528 7.04883L6.97664 6.2475Z" fill="#FDB827"/>
<path d="M31.9766 6.2475L34.7955 1.25035C35.0837 0.739466 35.9163 0.739466 36.2045 1.25035L39.0234 6.2475L45.3265 7.04883C45.9709 7.13075 46.2282 7.8236 45.7619 8.22127L41.2009 12.111L42.2776 17.6034C42.3877 18.1649 41.7141 18.5931 41.1377 18.328L35.5 15.7349L29.8623 18.328C29.286 18.5931 28.6123 18.1649 28.7224 17.6034L29.7991 12.111L25.2381 8.22127C24.7718 7.8236 25.0291 7.13075 25.6735 7.04883L31.9766 6.2475Z" fill="#FDB827"/>
<path d="M56.9766 6.2475L59.7955 1.25035C60.0837 0.739466 60.9163 0.739466 61.2045 1.25035L64.0234 6.2475L70.3265 7.04883C70.9709 7.13075 71.2282 7.8236 70.7619 8.22127L66.2009 12.111L67.2776 17.6034C67.3877 18.1649 66.7141 18.5931 66.1377 18.328L60.5 15.7349L54.8623 18.328C54.286 18.5931 53.6123 18.1649 53.7224 17.6034L54.7991 12.111L50.2381 8.22127C49.7718 7.8236 50.0291 7.13075 50.6735 7.04883L56.9766 6.2475Z" fill="#FDB827"/>
<path d="M81.9766 6.2475L84.7955 1.25035C85.0837 0.739466 85.9163 0.739466 86.2045 1.25035L89.0234 6.2475L95.3265 7.04883C95.9709 7.13075 96.2282 7.8236 95.7619 8.22127L91.2009 12.111L92.2776 17.6034C92.3877 18.1649 91.7141 18.5931 91.1377 18.328L85.5 15.7349L79.8623 18.328C79.286 18.5931 78.6123 18.1649 78.7224 17.6034L79.7991 12.111L75.2381 8.22127C74.7718 7.8236 75.0291 7.13075 75.6735 7.04883L81.9766 6.2475Z" fill="#FDB827"/>
<path d="M107.04 6.74351L107.289 6.71184L107.412 6.49316L110.231 1.49601C110.268 1.42989 110.36 1.36719 110.5 1.36719C110.64 1.36719 110.732 1.42989 110.769 1.49601L113.588 6.49316L113.711 6.71184L113.96 6.74351L120.263 7.54484C120.413 7.56382 120.474 7.64278 120.492 7.69072C120.501 7.71637 120.502 7.73872 120.497 7.75743C120.493 7.77439 120.48 7.80453 120.437 7.84083L115.876 11.7306L115.654 11.9203L115.71 12.2072L116.787 17.6996C116.795 17.7383 116.787 17.7965 116.697 17.8537C116.604 17.9125 116.471 17.931 116.347 17.8738L110.709 15.2806L110.5 15.1845L110.291 15.2806L104.653 17.8738C104.529 17.931 104.396 17.9125 104.303 17.8537C104.213 17.7965 104.205 17.7383 104.213 17.6996L105.29 12.2072L105.346 11.9203L105.124 11.7306L100.563 7.84083C100.52 7.80453 100.507 7.77439 100.503 7.75742C100.498 7.73872 100.499 7.71637 100.508 7.69072C100.526 7.64278 100.587 7.56382 100.737 7.54484L107.04 6.74351Z" fill="white" stroke="#FDB827"/>
</svg>
