<svg width="121" height="19" viewBox="0 0 121 19" fill="none" xmlns="http://www.w3.org/2000/svg">
<path d="M6.97664 6.20087L9.79548 1.20372C10.0837 0.692835 10.9163 0.692835 11.2045 1.20372L14.0234 6.20087L20.3265 7.0022C20.9709 7.08412 21.2282 7.77697 20.7619 8.17464L16.2009 12.0644L17.2776 17.5568C17.3877 18.1183 16.7141 18.5465 16.1377 18.2814L10.5 15.6882L4.86232 18.2814C4.28595 18.5465 3.61231 18.1183 3.72239 17.5568L4.79909 12.0644L0.238114 8.17464C-0.228179 7.77697 0.029127 7.08412 0.673528 7.0022L6.97664 6.20087Z" fill="#FDB827"/>
<path d="M31.9766 6.20087L34.7955 1.20372C35.0837 0.692835 35.9163 0.692835 36.2045 1.20372L39.0234 6.20087L45.3265 7.0022C45.9709 7.08412 46.2282 7.77697 45.7619 8.17464L41.2009 12.0644L42.2776 17.5568C42.3877 18.1183 41.7141 18.5465 41.1377 18.2814L35.5 15.6882L29.8623 18.2814C29.286 18.5465 28.6123 18.1183 28.7224 17.5568L29.7991 12.0644L25.2381 8.17464C24.7718 7.77697 25.0291 7.08412 25.6735 7.0022L31.9766 6.20087Z" fill="#FDB827"/>
<path d="M56.9766 6.20087L59.7955 1.20372C60.0837 0.692835 60.9163 0.692835 61.2045 1.20372L64.0234 6.20087L70.3265 7.0022C70.9709 7.08412 71.2282 7.77697 70.7619 8.17464L66.2009 12.0644L67.2776 17.5568C67.3877 18.1183 66.7141 18.5465 66.1377 18.2814L60.5 15.6882L54.8623 18.2814C54.286 18.5465 53.6123 18.1183 53.7224 17.5568L54.7991 12.0644L50.2381 8.17464C49.7718 7.77697 50.0291 7.08412 50.6735 7.0022L56.9766 6.20087Z" fill="#FDB827"/>
<path d="M81.9766 6.20087L84.7955 1.20372C85.0837 0.692835 85.9163 0.692835 86.2045 1.20372L89.0234 6.20087L95.3265 7.0022C95.9709 7.08412 96.2282 7.77697 95.7619 8.17464L91.2009 12.0644L92.2776 17.5568C92.3877 18.1183 91.7141 18.5465 91.1377 18.2814L85.5 15.6882L79.8623 18.2814C79.286 18.5465 78.6123 18.1183 78.7224 17.5568L79.7991 12.0644L75.2381 8.17464C74.7718 7.77697 75.0291 7.08412 75.6735 7.0022L81.9766 6.20087Z" fill="#FDB827"/>
<path d="M106.977 6.20087L109.795 1.20372C110.084 0.692835 110.916 0.692835 111.205 1.20372L114.023 6.20087L120.326 7.0022C120.971 7.08412 121.228 7.77697 120.762 8.17464L116.201 12.0644L117.278 17.5568C117.388 18.1183 116.714 18.5465 116.138 18.2814L110.5 15.6882L104.862 18.2814C104.286 18.5465 103.612 18.1183 103.722 17.5568L104.799 12.0644L100.238 8.17464C99.7718 7.77697 100.029 7.08412 100.674 7.0022L106.977 6.20087Z" fill="#FDB827"/>
</svg>
