<svg width="42" height="42" viewBox="0 0 42 42" fill="none" xmlns="http://www.w3.org/2000/svg">
<g clip-path="url(#clip0_33_2011)">
<path d="M20.9825 3.5C11.3225 3.5 3.5 11.34 3.5 21C3.5 30.66 11.3225 38.5 20.9825 38.5C30.66 38.5 38.5 30.66 38.5 21C38.5 11.34 30.66 3.5 20.9825 3.5ZM21 35C13.265 35 7 28.735 7 21C7 13.265 13.265 7 21 7C28.735 7 35 13.265 35 21C35 28.735 28.735 35 21 35ZM27.125 19.25C28.5775 19.25 29.75 18.0775 29.75 16.625C29.75 15.1725 28.5775 14 27.125 14C25.6725 14 24.5 15.1725 24.5 16.625C24.5 18.0775 25.6725 19.25 27.125 19.25ZM14.875 19.25C16.3275 19.25 17.5 18.0775 17.5 16.625C17.5 15.1725 16.3275 14 14.875 14C13.4225 14 12.25 15.1725 12.25 16.625C12.25 18.0775 13.4225 19.25 14.875 19.25ZM21 30.625C25.0775 30.625 28.5425 28.07 29.9425 24.5H12.0575C13.4575 28.07 16.9225 30.625 21 30.625Z" fill="black"/>
</g>
<defs>
<clipPath id="clip0_33_2011">
<rect width="42" height="42" fill="white"/>
</clipPath>
</defs>
</svg>
