<svg width="42" height="42" viewBox="0 0 42 42" fill="none" xmlns="http://www.w3.org/2000/svg">
<g id="record_voice_over" clip-path="url(#clip0_33_2007)">
<path id="Vector" d="M15.75 22.75C19.616 22.75 22.75 19.616 22.75 15.75C22.75 11.884 19.616 8.75 15.75 8.75C11.884 8.75 8.75 11.884 8.75 15.75C8.75 19.616 11.884 22.75 15.75 22.75Z" fill="black"/>
<path id="Vector_2" d="M15.75 26.25C11.0775 26.25 1.75 28.595 1.75 33.25V36.75H29.75V33.25C29.75 28.595 20.4225 26.25 15.75 26.25ZM29.33 9.38L26.39 12.3375C27.86 14.4025 27.86 17.08 26.39 19.145L29.33 22.1025C32.865 18.5675 32.865 13.23 29.33 9.38ZM35.1225 3.5L32.27 6.3525C37.1175 11.6375 37.1175 19.5825 32.27 25.1475L35.1225 28C41.9475 21.1925 41.965 10.5875 35.1225 3.5Z" fill="black"/>
</g>
<defs>
<clipPath id="clip0_33_2007">
<rect width="42" height="42" fill="white"/>
</clipPath>
</defs>
</svg>
